<svg xmlns="http://www.w3.org/2000/svg" width="48" height="48" viewBox="0 0 48 48" fill="none">
  <rect width="48" height="48" rx="12" fill="#10131a"/>
  <path d="M12 24h24v5c0 6.627-5.373 12-12 12S12 35.627 12 29v-5Z" fill="#ff8b72"/>
  <path d="M14 24h20v4.5C34 34.299 29.523 39 24 39s-10-4.701-10-10.5V24Z" fill="#67a88d"/>
  <path d="M17 23c0-3 2-4 2-7M24 23c0-3 2-4 2-7M31 23c0-3 2-4 2-7" stroke="#fff8f2" stroke-width="2.5" stroke-linecap="round"/>
  <path d="M10 24h28" stroke="#fff8f2" stroke-width="2.5" stroke-linecap="round"/>
</svg>
